<svg width="244" height="166" viewBox="0 0 244 166" fill="none" xmlns="http://www.w3.org/2000/svg">
<rect y="20" width="110" height="124" rx="13" fill="#09C956"/>
<rect x="10" y="29" width="90" height="107" rx="13" fill="white"/>
<ellipse cx="100.5" cy="128.5" rx="28.5" ry="26.5" fill="#09C956"/>
<ellipse cx="100.5" cy="128.5" rx="24.5" ry="22.5" fill="white"/>
<path d="M83.8149 115.58C90.3401 108.08 102.892 108.318 111.85 116.112C120.808 123.906 100.525 116.941 93.9997 124.441C87.4745 131.941 97.1784 151.066 88.2202 143.272C79.262 135.478 77.2897 123.08 83.8149 115.58Z" fill="#E3E3E3" fill-opacity="0.4"/>
<rect x="122.872" y="138.944" width="34.5458" height="8.03766" transform="rotate(35.4892 122.872 138.944)" fill="#09C956"/>
<path d="M134.157 42.94V64H129.027V55.33H121.047V64H115.917V42.94H121.047V51.19H129.027V42.94H134.157Z" fill="#09C956"/>
<path d="M155.773 48.26V65H150.643V62.72C150.123 63.46 149.413 64.06 148.513 64.52C147.633 64.96 146.653 65.18 145.573 65.18C144.293 65.18 143.163 64.9 142.183 64.34C141.203 63.76 140.443 62.93 139.903 61.85C139.363 60.77 139.093 59.5 139.093 58.04V48.26H144.193V57.35C144.193 58.47 144.483 59.34 145.063 59.96C145.643 60.58 146.423 60.89 147.403 60.89C148.403 60.89 149.193 60.58 149.773 59.96C150.353 59.34 150.643 58.47 150.643 57.35V48.26H155.773ZM169.658 48.08C171.618 48.08 173.178 48.72 174.338 50C175.518 51.26 176.108 53 176.108 55.22V65H171.008V55.91C171.008 54.79 170.718 53.92 170.138 53.3C169.558 52.68 168.778 52.37 167.798 52.37C166.818 52.37 166.038 52.68 165.458 53.3C164.878 53.92 164.588 54.79 164.588 55.91V65H159.458V48.26H164.588V50.48C165.108 49.74 165.808 49.16 166.688 48.74C167.568 48.3 168.558 48.08 169.658 48.08ZM189.003 60.65V65H186.393C184.533 65 183.083 64.55 182.043 63.65C181.003 62.73 180.483 61.24 180.483 59.18V52.52H178.443V48.26H180.483V44.18H185.613V48.26H188.973V52.52H185.613V59.24C185.613 59.74 185.733 60.1 185.973 60.32C186.213 60.54 186.613 60.65 187.173 60.65H189.003Z" fill="#B20EB6" fill-opacity="0.98"/>
<path d="M124.32 72.94C126.54 72.94 128.48 73.38 130.14 74.26C131.8 75.14 133.08 76.38 133.98 77.98C134.9 79.56 135.36 81.39 135.36 83.47C135.36 85.53 134.9 87.36 133.98 88.96C133.08 90.56 131.79 91.8 130.11 92.68C128.45 93.56 126.52 94 124.32 94H116.43V72.94H124.32ZM123.99 89.56C125.93 89.56 127.44 89.03 128.52 87.97C129.6 86.91 130.14 85.41 130.14 83.47C130.14 81.53 129.6 80.02 128.52 78.94C127.44 77.86 125.93 77.32 123.99 77.32H121.56V89.56H123.99ZM143.357 80.05C143.957 79.13 144.707 78.41 145.607 77.89C146.507 77.35 147.507 77.08 148.607 77.08V82.51H147.197C145.917 82.51 144.957 82.79 144.317 83.35C143.677 83.89 143.357 84.85 143.357 86.23V94H138.227V77.26H143.357V80.05ZM166.839 85.36C166.839 85.84 166.809 86.34 166.749 86.86H155.139C155.219 87.9 155.549 88.7 156.129 89.26C156.729 89.8 157.459 90.07 158.319 90.07C159.599 90.07 160.489 89.53 160.989 88.45H166.449C166.169 89.55 165.659 90.54 164.919 91.42C164.199 92.3 163.289 92.99 162.189 93.49C161.089 93.99 159.859 94.24 158.499 94.24C156.859 94.24 155.399 93.89 154.119 93.19C152.839 92.49 151.839 91.49 151.119 90.19C150.399 88.89 150.039 87.37 150.039 85.63C150.039 83.89 150.389 82.37 151.089 81.07C151.809 79.77 152.809 78.77 154.089 78.07C155.369 77.37 156.839 77.02 158.499 77.02C160.119 77.02 161.559 77.36 162.819 78.04C164.079 78.72 165.059 79.69 165.759 80.95C166.479 82.21 166.839 83.68 166.839 85.36ZM161.589 84.01C161.589 83.13 161.289 82.43 160.689 81.91C160.089 81.39 159.339 81.13 158.439 81.13C157.579 81.13 156.849 81.38 156.249 81.88C155.669 82.38 155.309 83.09 155.169 84.01H161.589ZM168.526 85.6C168.526 83.88 168.846 82.37 169.486 81.07C170.146 79.77 171.036 78.77 172.156 78.07C173.276 77.37 174.526 77.02 175.906 77.02C177.086 77.02 178.116 77.26 178.996 77.74C179.896 78.22 180.586 78.85 181.066 79.63V77.26H186.196V94H181.066V91.63C180.566 92.41 179.866 93.04 178.966 93.52C178.086 94 177.056 94.24 175.876 94.24C174.516 94.24 173.276 93.89 172.156 93.19C171.036 92.47 170.146 91.46 169.486 90.16C168.846 88.84 168.526 87.32 168.526 85.6ZM181.066 85.63C181.066 84.35 180.706 83.34 179.986 82.6C179.286 81.86 178.426 81.49 177.406 81.49C176.386 81.49 175.516 81.86 174.796 82.6C174.096 83.32 173.746 84.32 173.746 85.6C173.746 86.88 174.096 87.9 174.796 88.66C175.516 89.4 176.386 89.77 177.406 89.77C178.426 89.77 179.286 89.4 179.986 88.66C180.706 87.92 181.066 86.91 181.066 85.63ZM211.267 77.08C213.347 77.08 214.997 77.71 216.217 78.97C217.457 80.23 218.077 81.98 218.077 84.22V94H212.977V84.91C212.977 83.83 212.687 83 212.107 82.42C211.547 81.82 210.767 81.52 209.767 81.52C208.767 81.52 207.977 81.82 207.397 82.42C206.837 83 206.557 83.83 206.557 84.91V94H201.457V84.91C201.457 83.83 201.167 83 200.587 82.42C200.027 81.82 199.247 81.52 198.247 81.52C197.247 81.52 196.457 81.82 195.877 82.42C195.317 83 195.037 83.83 195.037 84.91V94H189.907V77.26H195.037V79.36C195.557 78.66 196.237 78.11 197.077 77.71C197.917 77.29 198.867 77.08 199.927 77.08C201.187 77.08 202.307 77.35 203.287 77.89C204.287 78.43 205.067 79.2 205.627 80.2C206.207 79.28 206.997 78.53 207.997 77.95C208.997 77.37 210.087 77.08 211.267 77.08ZM228.475 94.24C227.015 94.24 225.715 93.99 224.575 93.49C223.435 92.99 222.535 92.31 221.875 91.45C221.215 90.57 220.845 89.59 220.765 88.51H225.835C225.895 89.09 226.165 89.56 226.645 89.92C227.125 90.28 227.715 90.46 228.415 90.46C229.055 90.46 229.545 90.34 229.885 90.1C230.245 89.84 230.425 89.51 230.425 89.11C230.425 88.63 230.175 88.28 229.675 88.06C229.175 87.82 228.365 87.56 227.245 87.28C226.045 87 225.045 86.71 224.245 86.41C223.445 86.09 222.755 85.6 222.175 84.94C221.595 84.26 221.305 83.35 221.305 82.21C221.305 81.25 221.565 80.38 222.085 79.6C222.625 78.8 223.405 78.17 224.425 77.71C225.465 77.25 226.695 77.02 228.115 77.02C230.215 77.02 231.865 77.54 233.065 78.58C234.285 79.62 234.985 81 235.165 82.72H230.425C230.345 82.14 230.085 81.68 229.645 81.34C229.225 81 228.665 80.83 227.965 80.83C227.365 80.83 226.905 80.95 226.585 81.19C226.265 81.41 226.105 81.72 226.105 82.12C226.105 82.6 226.355 82.96 226.855 83.2C227.375 83.44 228.175 83.68 229.255 83.92C230.495 84.24 231.505 84.56 232.285 84.88C233.065 85.18 233.745 85.68 234.325 86.38C234.925 87.06 235.235 87.98 235.255 89.14C235.255 90.12 234.975 91 234.415 91.78C233.875 92.54 233.085 93.14 232.045 93.58C231.025 94.02 229.835 94.24 228.475 94.24Z" fill="#09C956"/>
<path d="M240.793 94.24C239.893 94.24 239.153 93.98 238.573 93.46C238.013 92.92 237.733 92.26 237.733 91.48C237.733 90.68 238.013 90.01 238.573 89.47C239.153 88.93 239.893 88.66 240.793 88.66C241.673 88.66 242.393 88.93 242.953 89.47C243.533 90.01 243.823 90.68 243.823 91.48C243.823 92.26 243.533 92.92 242.953 93.46C242.393 93.98 241.673 94.24 240.793 94.24Z" fill="#B20EB6" fill-opacity="0.98"/>
<rect x="22" y="40" width="63" height="5" fill="#C4C4C4" fill-opacity="0.35"/>
<rect x="22" y="48" width="46" height="5" fill="#C4C4C4" fill-opacity="0.12"/>
<rect x="22" y="59" width="63" height="13" fill="#C4C4C4" fill-opacity="0.12"/>
<rect x="22" y="77" width="54" height="7" fill="#C4C4C4" fill-opacity="0.69"/>
<rect x="22" y="90" width="54" height="2" fill="#EEEDED"/>
<rect x="22" y="96" width="54" height="7" fill="#E5E5E5"/>
</svg>
